<svg xmlns="http://www.w3.org/2000/svg" width="1600" height="900" viewBox="0 0 1600 900" fill="none">
  <rect width="1600" height="900" fill="#F8F5EF"/>
  <filter id="s" x="-20%" y="-20%" width="140%" height="140%" color-interpolation-filters="sRGB">
    <feDropShadow dx="0" dy="24" stdDeviation="18" flood-color="#0B0C0C" flood-opacity=".13"/>
  </filter>
  <g stroke="#1A6AFF" stroke-width="1.5" stroke-linecap="round" stroke-linejoin="round" filter="url(#s)">
    <g transform="translate(322 200) rotate(-4 438 256)">
      <path d="M44 0H416C452 0 482 30 482 66V516H84C38 516 0 478 0 432V44C0 20 20 0 44 0Z" fill="#FCFAF5"/>
      <path d="M482 66C482 30 512 0 548 0H838C862 0 882 20 882 44V432C882 478 844 516 798 516H482V66Z" fill="#FCFAF5"/>
      <path d="M482 66V516"/>
      <path d="M76 104H366M76 146H396M76 188H340M76 230H386M76 272H316M76 314H374M76 356H332"/>
      <path d="M570 140C620 104 688 104 742 142C792 178 812 236 792 292"/>
      <path d="M568 318V248M626 318V212M684 318V266M742 318V190"/>
      <path d="M552 318H774"/>
      <path d="M576 386H778M576 424H712"/>
    </g>
    <g transform="translate(1058 286) rotate(6 132 208)">
      <rect width="264" height="416" rx="20" fill="#17120B" opacity=".09"/>
      <path d="M42 74H208M42 120H174M42 166H218M42 212H152"/>
    </g>
    <ellipse cx="526" cy="634" rx="54" ry="22" transform="rotate(-18 526 634)" stroke="#F0CC27" stroke-width="7"/>
  </g>
</svg>
