<svg xmlns="http://www.w3.org/2000/svg" width="1600" height="900" viewBox="0 0 1600 900" fill="none">
  <rect width="1600" height="900" fill="#F8F5EF"/>
  <filter id="s" x="-20%" y="-20%" width="140%" height="140%" color-interpolation-filters="sRGB">
    <feDropShadow dx="0" dy="24" stdDeviation="18" flood-color="#0B0C0C" flood-opacity=".13"/>
  </filter>
  <g opacity=".22" fill="#1A6AFF">
    <circle cx="520" cy="270" r="3"/><circle cx="620" cy="270" r="3"/><circle cx="720" cy="270" r="3"/><circle cx="820" cy="270" r="3"/><circle cx="920" cy="270" r="3"/><circle cx="1020" cy="270" r="3"/>
    <circle cx="520" cy="370" r="3"/><circle cx="620" cy="370" r="3"/><circle cx="720" cy="370" r="3"/><circle cx="820" cy="370" r="3"/><circle cx="920" cy="370" r="3"/><circle cx="1020" cy="370" r="3"/>
    <circle cx="520" cy="470" r="3"/><circle cx="620" cy="470" r="3"/><circle cx="720" cy="470" r="3"/><circle cx="820" cy="470" r="3"/><circle cx="920" cy="470" r="3"/><circle cx="1020" cy="470" r="3"/>
    <circle cx="520" cy="570" r="3"/><circle cx="620" cy="570" r="3"/><circle cx="720" cy="570" r="3"/><circle cx="820" cy="570" r="3"/><circle cx="920" cy="570" r="3"/><circle cx="1020" cy="570" r="3"/>
  </g>
  <g stroke="#1A6AFF" stroke-width="1.5" stroke-linecap="round" stroke-linejoin="round" filter="url(#s)">
    <g transform="translate(582 170)">
      <circle cx="278" cy="278" r="250" fill="#FCFAF5"/>
      <circle cx="278" cy="278" r="198"/>
      <circle cx="278" cy="278" r="146"/>
      <circle cx="278" cy="278" r="92"/>
      <circle cx="278" cy="278" r="28" fill="#F8F5EF"/>
      <path d="M278 28V94M278 462V528M28 278H94M462 278H528M102 102L148 148M408 408L454 454M454 102L408 148M148 408L102 454"/>
      <circle cx="278" cy="278" r="146" stroke="#F0CC27" stroke-width="7"/>
    </g>
    <g transform="translate(318 390) rotate(-9 134 96)">
      <rect width="268" height="190" rx="18" fill="#FCFAF5"/>
      <circle cx="88" cy="96" r="32"/>
      <path d="M120 96H218M178 96V126M208 96V118"/>
    </g>
  </g>
</svg>
