<svg xmlns="http://www.w3.org/2000/svg" width="1600" height="900" viewBox="0 0 1600 900" fill="none">
  <rect width="1600" height="900" fill="#F8F5EF"/>
  <filter id="s" x="-20%" y="-20%" width="140%" height="140%" color-interpolation-filters="sRGB">
    <feDropShadow dx="0" dy="24" stdDeviation="16" flood-color="#0B0C0C" flood-opacity=".12"/>
  </filter>
  <path d="M400 288C520 214 706 198 840 236C1018 286 1116 236 1222 304" stroke="#1A6AFF" stroke-width="1.5" stroke-linecap="round" opacity=".35"/>
  <path d="M432 520C598 470 724 568 882 520C1022 478 1116 512 1200 576" stroke="#1A6AFF" stroke-width="1.5" stroke-linecap="round" opacity=".35"/>
  <g stroke="#1A6AFF" stroke-width="1.5" stroke-linecap="round" stroke-linejoin="round" filter="url(#s)">
    <g transform="translate(356 240)">
      <path d="M0 44C0 32 10 22 22 22H92L116 48H222C234 48 244 58 244 70V166C244 178 234 188 222 188H22C10 188 0 178 0 166V44Z" fill="#FCFAF5"/>
      <path d="M0 74H244"/>
    </g>
    <g transform="translate(680 214)">
      <path d="M34 32L168 0C185 -4 202 7 206 24L236 152C240 169 229 186 212 190L78 222C61 226 44 215 40 198L10 70C6 53 17 36 34 32Z" fill="#FCFAF5"/>
      <path d="M58 58L194 26M70 110L206 78M82 162L218 130"/>
      <path d="M70 110L206 78" stroke="#F0CC27" stroke-width="7"/>
    </g>
    <g transform="translate(1000 244)">
      <rect width="244" height="172" rx="18" fill="#FCFAF5"/>
      <path d="M34 44H138M34 78H210M34 112H104M132 112H210M34 140H210"/>
      <path d="M126 78V140"/>
    </g>
    <g transform="translate(380 510)">
      <rect width="150" height="172" rx="18" fill="#FCFAF5"/>
      <path d="M36 52H114M36 86H114M36 120H88"/>
      <path d="M176 34C176 16 190 0 210 0H282C302 0 316 16 316 34V90C316 108 302 124 282 124H240L206 158V124H210C190 124 176 108 176 90V34Z" fill="#FCFAF5"/>
      <path d="M214 46H278M214 76H260"/>
    </g>
    <g transform="translate(684 516)">
      <path d="M36 36H198C218 36 234 52 234 72V252H36C16 252 0 236 0 216V72C0 52 16 36 36 36Z" fill="#FCFAF5"/>
      <path d="M28 0H190C210 0 226 16 226 36V224"/>
      <path d="M66 98H172M66 134H190M66 170H150"/>
      <path d="M178 36V120L204 104L230 120V36" stroke="#F0CC27" stroke-width="7"/>
    </g>
    <g transform="translate(1012 520)">
      <rect width="244" height="196" rx="18" fill="#FCFAF5"/>
      <path d="M42 58H164M42 92H202M42 126H186M42 160H128"/>
      <path d="M42 58H164" stroke="#F0CC27" stroke-width="5"/>
    </g>
  </g>
</svg>
